{
	"asset":{
		"version":"2.0",
		"generator":"Created using the official Cinema 4D glTF Exporter 1.000x284978"
	},
	"scenes":[{
		"nodes":[0]
	}],
	"nodes":[{
		"name":"logo_bal",
		"mesh":0
	}],
	"meshes":[{
		"name":"logo_bal",
		"primitives":[{
			"attributes":{
				"POSITION":1,
				"NORMAL":2,
				"TEXCOORD_0":3
			},
			"indices":0
		}]
	}],
	"accessors":[{
		"bufferView":0,
		"type":"SCALAR",
		"componentType":5123,
		"count":6384,
		"byteOffset":0,
		"min":[0],
		"max":[2233]
	},
	{
		"bufferView":1,
		"type":"VEC3",
		"componentType":5126,
		"count":2234,
		"byteOffset":0,
		"min":[-1.4417304992675782,
		-0.7929054498672485,
		-0.25],
		"max":[1.44173002243042,
		0.7929054498672485,
		0.25]
	},
	{
		"bufferView":1,
		"type":"VEC3",
		"componentType":5126,
		"count":2234,
		"byteOffset":12,
		"min":[-1.0,
		-1.0,
		-1.0],
		"max":[1.0,
		1.0,
		1.0]
	},
	{
		"bufferView":1,
		"type":"VEC2",
		"componentType":5126,
		"count":2234,
		"byteOffset":24,
		"min":[0.0,
		0.0],
		"max":[1.0,
		1.0]
	}],
	"bufferViews":[{
		"buffer":0,
		"byteOffset":0,
		"byteLength":12768,
		"target":34963
	},
	{
		"buffer":0,
		"byteOffset":12768,
		"byteLength":71488,
		"target":34962,
		"byteStride":32
	}],
	"buffers":[{
		"uri":"data:application/octet-stream;base64,",
		"byteLength":84256
	}]
}