{
	"asset":{
		"version":"2.0",
		"generator":"Created using the official Cinema 4D glTF Exporter 1.000x284978"
	},
	"scenes":[{
		"nodes":[0]
	}],
	"nodes":[{
		"name":"Neon Ppe",
		"translation":[-4.676191806793213,
		2.7077834606170656,
		-7.184824466705322],
		"rotation":[0.0,
		0.0,
		0.0,
		-1.0],
		"scale":[1.0,
		1.0,
		1.0],
		"mesh":0
	}],
	"meshes":[{
		"name":"Neon Ppe",
		"primitives":[{
			"attributes":{
				"POSITION":1,
				"NORMAL":2,
				"TEXCOORD_0":3
			},
			"indices":0
		}]
	}],
	"accessors":[{
		"bufferView":0,
		"type":"SCALAR",
		"componentType":5123,
		"count":32346,
		"byteOffset":0,
		"min":[0],
		"max":[9593]
	},
	{
		"bufferView":1,
		"type":"VEC3",
		"componentType":5126,
		"count":9594,
		"byteOffset":0,
		"min":[-8.876285552978516,
		-3.367783546447754,
		-7.256439208984375],
		"max":[18.228670120239259,
		1.0422165393829346,
		21.59604835510254]
	},
	{
		"bufferView":1,
		"type":"VEC3",
		"componentType":5126,
		"count":9594,
		"byteOffset":12,
		"min":[-0.9999691843986511,
		-1.0,
		-0.9999998807907105],
		"max":[0.9999692440032959,
		1.0,
		0.9999998211860657]
	},
	{
		"bufferView":1,
		"type":"VEC2",
		"componentType":5126,
		"count":9594,
		"byteOffset":24,
		"min":[0.0,
		0.0],
		"max":[1.0,
		1.0]
	}],
	"bufferViews":[{
		"buffer":0,
		"byteOffset":0,
		"byteLength":64692,
		"target":34963
	},
	{
		"buffer":0,
		"byteOffset":64692,
		"byteLength":307008,
		"target":34962,
		"byteStride":32
	}],
	"buffers":[{
		"uri":"data:application/octet-stream;base64,",
		"byteLength":371700
	}]
}