<?xml version="1.0" encoding="utf-8"?>
<!-- Generator: Adobe Illustrator 26.0.3, SVG Export Plug-In . SVG Version: 6.00 Build 0)  -->
<svg version="1.1" id="レイヤー_1" xmlns="http://www.w3.org/2000/svg" xmlns:xlink="http://www.w3.org/1999/xlink" x="0px"
	 y="0px" viewBox="0 0 1124.56 402.33" style="enable-background:new 0 0 1124.56 402.33;" xml:space="preserve">
<style type="text/css">
	.st0{enable-background:new    ;}
	.st1{opacity:0.5;}
	.st2{fill:#FFFFFF;}
	.st3{clip-path:url(#SVGID_00000039819265803816619150000004278100696284941719_);}
</style>
<g>
	<g class="st0">
		<g class="st1">
			<path class="st2" d="M212.27,79.15v45.98c0,6.69-5.43,12.12-12.12,12.12h-45.98c-6.69,0-12.12-5.43-12.12-12.12V79.15
				c0-6.69,5.43-12.12,12.12-12.12h45.98C206.84,67.03,212.27,72.46,212.27,79.15z"/>
		</g>
		<g>
			<path d="M200.15,138.76h-45.98c-7.51,0-13.62-6.11-13.62-13.62V79.15c0-7.51,6.11-13.62,13.62-13.62h45.98
				c7.51,0,13.62,6.11,13.62,13.62v45.98C213.77,132.64,207.66,138.76,200.15,138.76z M154.16,68.53c-5.86,0-10.62,4.77-10.62,10.62
				v45.98c0,5.86,4.77,10.62,10.62,10.62h45.98c5.86,0,10.62-4.77,10.62-10.62V79.15c0-5.86-4.77-10.62-10.62-10.62H154.16z"/>
		</g>
	</g>
	<g class="st0">
		<g class="st1">
			<path class="st2" d="M212.27,159.41v45.98c0,6.69-5.43,12.12-12.12,12.12h-45.98c-6.69,0-12.12-5.43-12.12-12.12v-45.98
				c0-6.69,5.43-12.12,12.12-12.12h45.98C206.84,147.29,212.27,152.72,212.27,159.41z"/>
		</g>
		<g>
			<path d="M200.15,219.02h-45.98c-7.51,0-13.62-6.11-13.62-13.62v-45.98c0-7.51,6.11-13.62,13.62-13.62h45.98
				c7.51,0,13.62,6.11,13.62,13.62v45.98C213.77,212.91,207.66,219.02,200.15,219.02z M154.16,148.79
				c-5.86,0-10.62,4.77-10.62,10.62v45.98c0,5.86,4.77,10.62,10.62,10.62h45.98c5.86,0,10.62-4.77,10.62-10.62v-45.98
				c0-5.86-4.77-10.62-10.62-10.62H154.16z"/>
		</g>
	</g>
	<g class="st0">
		<g class="st1">
			<path class="st2" d="M292.53,159.41v45.98c0,6.69-5.43,12.12-12.12,12.12h-45.98c-6.69,0-12.12-5.43-12.12-12.12v-45.98
				c0-6.69,5.43-12.12,12.12-12.12h45.98C287.1,147.29,292.53,152.72,292.53,159.41z"/>
		</g>
		<g>
			<path d="M280.41,219.02h-45.98c-7.51,0-13.62-6.11-13.62-13.62v-45.98c0-7.51,6.11-13.62,13.62-13.62h45.98
				c7.51,0,13.62,6.11,13.62,13.62v45.98C294.03,212.91,287.92,219.02,280.41,219.02z M234.43,148.79
				c-5.86,0-10.62,4.77-10.62,10.62v45.98c0,5.86,4.77,10.62,10.62,10.62h45.98c5.86,0,10.62-4.77,10.62-10.62v-45.98
				c0-5.86-4.77-10.62-10.62-10.62H234.43z"/>
		</g>
	</g>
	<g class="st0">
		<g class="st1">
			<path class="st2" d="M132.01,159.41v45.98c0,6.69-5.43,12.12-12.12,12.12H73.9c-6.69,0-12.12-5.43-12.12-12.12v-45.98
				c0-6.69,5.43-12.12,12.12-12.12h45.98C126.57,147.29,132.01,152.72,132.01,159.41z"/>
		</g>
		<g>
			<path d="M119.88,219.02H73.9c-7.51,0-13.62-6.11-13.62-13.62v-45.98c0-7.51,6.11-13.62,13.62-13.62h45.98
				c7.51,0,13.62,6.11,13.62,13.62v45.98C133.51,212.91,127.4,219.02,119.88,219.02z M73.9,148.79c-5.86,0-10.62,4.77-10.62,10.62
				v45.98c0,5.86,4.77,10.62,10.62,10.62h45.98c5.86,0,10.62-4.77,10.62-10.62v-45.98c0-5.86-4.77-10.62-10.62-10.62H73.9z"/>
		</g>
	</g>
	<g>
		<path d="M200.15,64.52h-45.98c-8.11,0-14.63,6.52-14.63,14.63v45.98c0,8.03,6.52,14.63,14.63,14.63h45.98
			c8.03,0,14.63-6.52,14.63-14.63V79.15C214.78,71.04,208.26,64.52,200.15,64.52z M212.27,125.13c0,6.69-5.43,12.12-12.12,12.12
			h-45.98c-6.69,0-12.12-5.43-12.12-12.12V79.15c0-6.69,5.43-12.12,12.12-12.12h45.98c6.69,0,12.12,5.43,12.12,12.12V125.13z"/>
	</g>
	<g>
		<path d="M200.15,144.78h-45.98c-8.03,0-14.63,6.52-14.63,14.63v45.98c0,8.03,6.52,14.63,14.63,14.63h45.98
			c8.03,0,14.63-6.52,14.63-14.63v-45.98C214.78,151.3,208.26,144.78,200.15,144.78z M212.27,205.4c0,6.69-5.43,12.12-12.12,12.12
			h-45.98c-6.69,0-12.12-5.43-12.12-12.12v-45.98c0-6.69,5.43-12.12,12.12-12.12h45.98c6.69,0,12.12,5.43,12.12,12.12V205.4z"/>
	</g>
	<g>
		<path d="M280.41,144.78h-45.98c-8.03,0-14.63,6.52-14.63,14.63v45.98c0,8.03,6.52,14.63,14.63,14.63h45.98
			c8.03,0,14.63-6.52,14.63-14.63v-45.98C295.04,151.3,288.52,144.78,280.41,144.78z M292.53,205.4c0,6.69-5.43,12.12-12.12,12.12
			h-45.98c-6.69,0-12.12-5.43-12.12-12.12v-45.98c0-6.69,5.43-12.12,12.12-12.12h45.98c6.69,0,12.12,5.43,12.12,12.12V205.4z"/>
	</g>
	<g>
		<path d="M119.88,144.78H73.9c-8.11,0-14.63,6.52-14.63,14.63v45.98c0,8.03,6.52,14.63,14.63,14.63h45.98
			c8.03,0,14.63-6.52,14.63-14.63v-45.98C134.52,151.3,127.99,144.78,119.88,144.78z M132.01,205.4c0,6.69-5.43,12.12-12.12,12.12
			H73.9c-6.69,0-12.12-5.43-12.12-12.12v-45.98c0-6.69,5.43-12.12,12.12-12.12h45.98c6.69,0,12.12,5.43,12.12,12.12V205.4z"/>
	</g>
	<g>
		<g>
			<g>
				<g>
					<rect x="176.32" y="217.52" width="2.51" height="49.16"/>
				</g>
			</g>
		</g>
		<g>
			<g>
				<g>
					<g>
						<polygon points="187.86,258.32 186.02,256.65 177.57,265.68 169.13,256.65 167.29,258.32 177.57,269.35 						"/>
					</g>
				</g>
			</g>
		</g>
	</g>
	<g>
		<g>
			<g>
				<g>
					<rect x="293.37" y="180.73" width="49.16" height="2.51"/>
				</g>
			</g>
		</g>
		<g>
			<g>
				<g>
					<g>
						<polygon points="334.17,171.7 332.5,173.54 341.53,181.99 332.5,190.43 334.17,192.27 345.2,181.99 						"/>
					</g>
				</g>
			</g>
		</g>
	</g>
	<g>
		<g>
			<g>
				<g>
					<rect x="11.78" y="180.73" width="49.16" height="2.51"/>
				</g>
			</g>
		</g>
		<g>
			<g>
				<g>
					<g>
						<polygon points="20.14,192.27 21.81,190.43 12.78,181.99 21.81,173.54 20.14,171.7 9.11,181.99 						"/>
					</g>
				</g>
			</g>
		</g>
	</g>
	<g>
		<g>
			<g>
				<g>
					<rect x="176.32" y="17.03" width="2.51" height="49.16"/>
				</g>
			</g>
		</g>
		<g>
			<g>
				<g>
					<g>
						<polygon points="167.29,25.39 169.13,27.06 177.57,18.03 186.02,27.06 187.86,25.39 177.57,14.35 						"/>
					</g>
				</g>
			</g>
		</g>
	</g>
	<g>
		<path d="M193.69,84.98h4.85l-11.65,34.45h-3.95l-6.2-21.75l-6.15,21.75h-3.95l-11.65-34.45h4.85l8.8,27.25l6.4-22.55h3.45
			l6.45,22.45L193.69,84.98z"/>
	</g>
	<g>
		<path d="M107.67,199.21l-3.35-8.85h-14.8l-3.35,8.85h-4.75l13.1-34.45h4.8l13.1,34.45H107.67z M91.02,186.36h11.8l-5.9-15.65
			L91.02,186.36z"/>
	</g>
	<g>
		<path d="M165.9,189.46h4.5c0.15,3.05,3.05,6.15,7.65,6.15c4.45,0,6.95-2.9,6.95-5.95c0-3.35-3.05-4.85-5.95-5.6l-4.45-1.1
			c-7.3-1.75-8.45-6.05-8.45-8.85c0-5.95,5.35-9.95,11.35-9.95c6.05,0,10.9,3.85,10.9,10h-4.5c0-3.45-2.85-5.8-6.55-5.8
			c-3.45,0-6.65,2.3-6.65,5.7c0,1.2,0.4,3.6,5,4.8l4.5,1.2c5.85,1.55,9.35,4.55,9.35,9.45c0,5.35-4.35,10.3-11.5,10.3
			C170.8,199.81,165.95,194.81,165.9,189.46z"/>
	</g>
	<g>
		<path d="M257.42,164.75c9.8,0,15.55,7.5,15.55,17.3c0,9.75-5.75,17.15-15.55,17.15h-13.35v-34.45H257.42z M257.42,195.01
			c7.25,0,11-5.6,11-12.95s-3.75-13.1-11-13.1h-8.8v26.05H257.42z"/>
	</g>
</g>
<g>
	<path d="M160.5,340.42h5.95l-14.29,42.26h-4.85L139.7,356l-7.54,26.68h-4.85l-14.29-42.26h5.95l10.8,33.43l7.85-27.66h4.23
		l7.91,27.54L160.5,340.42z"/>
	<path d="M189.76,354.04h5.34v28.65h-5.34v-5.09c-1.9,3.43-5.89,5.83-10.49,5.83c-7.48,0-14.05-6.32-14.05-15.09
		c0-8.46,6.2-15.03,14.29-15.03c4.29,0,8.34,1.84,10.24,5.21V354.04z M189.76,368.33c0-5.89-4.97-10-9.75-10
		c-5.21,0-9.38,4.6-9.38,10c0,5.46,4.17,10.06,9.45,10.06C185.16,378.39,189.76,374.16,189.76,368.33z"/>
	<path d="M203.2,382.69v-44.23h5.34v44.23H203.2z"/>
	<path d="M242.27,382.69h-7.18l-13.19-13.99v13.99h-5.34v-44.23h5.34v25.7l9.94-10.12h7.42L227,366.43L242.27,382.69z"/>
</g>
<g>
	<path d="M561.47,340.42h5.95l-14.29,42.26h-4.85L540.68,356l-7.54,26.68h-4.85l-14.29-42.26h5.95l10.8,33.43l7.85-27.66h4.23
		l7.91,27.54L561.47,340.42z"/>
	<path d="M590.74,354.04h5.34v28.65h-5.34v-5.09c-1.9,3.43-5.89,5.83-10.49,5.83c-7.48,0-14.05-6.32-14.05-15.09
		c0-8.46,6.2-15.03,14.29-15.03c4.29,0,8.34,1.84,10.24,5.21V354.04z M590.74,368.33c0-5.89-4.97-10-9.75-10
		c-5.21,0-9.39,4.6-9.39,10c0,5.46,4.17,10.06,9.45,10.06C586.14,378.39,590.74,374.16,590.74,368.33z"/>
	<path d="M621.35,354.41l-0.86,5.03c-1.53-0.74-3.07-0.98-4.17-0.98c-5.7,0-7.97,6.2-7.97,13.74v10.49h-5.4v-28.65h5.4v6.5
		c1.47-5.03,4.23-7.24,8.04-7.24C618.4,353.31,620.49,353.86,621.35,354.41z"/>
	<path d="M656.56,368.4c0,9.08-6.44,15.03-14.29,15.03c-4.29,0-8.34-1.84-10.24-5.21v18.4h-5.34v-42.57h5.34v4.48
		c1.9-3.25,6.07-5.21,10.18-5.21C650.06,353.31,656.56,359.38,656.56,368.4z M651.16,368.46c0-5.71-4.17-10.12-9.45-10.12
		c-5.09,0-9.69,3.99-9.69,10.12c0,6.2,5.03,9.94,9.69,9.94C646.99,378.39,651.16,374.22,651.16,368.46z"/>
</g>
<g>
	<g>
		<defs>
			<path id="SVGID_1_" d="M444.29,14.69v157.33h182.47c0-24.97,0-49.71,0-74.22c24.63,24.59,49.47,49.39,74.33,74.22h25.72V14.69
				H444.29z"/>
		</defs>
		<clipPath id="SVGID_00000161591543495417159750000011566144245874789555_">
			<use xlink:href="#SVGID_1_"  style="overflow:visible;"/>
		</clipPath>
		<g style="clip-path:url(#SVGID_00000161591543495417159750000011566144245874789555_);">
			<g class="st0">
				<g class="st1">
					<ellipse class="st2" cx="585.48" cy="101.7" rx="137.66" ry="39.08"/>
				</g>
				<g>
					<path d="M585.48,142.78c-78.31,0-139.66-18.04-139.66-41.08s61.34-41.08,139.66-41.08s139.66,18.04,139.66,41.08
						S663.79,142.78,585.48,142.78z M585.48,64.62c-81.15,0-135.66,19.17-135.66,37.08s54.51,37.08,135.66,37.08
						c81.15,0,135.66-19.17,135.66-37.08S666.63,64.62,585.48,64.62z"/>
				</g>
			</g>
			<g class="st0">
				<g class="st1">
					<ellipse class="st2" cx="585.48" cy="101.7" rx="97.65" ry="23.7"/>
				</g>
				<g>
					<path d="M585.48,127.4c-48.31,0-99.65-9.01-99.65-25.7c0-16.69,51.34-25.7,99.65-25.7c48.31,0,99.65,9.01,99.65,25.7
						C685.13,118.39,633.79,127.4,585.48,127.4z M585.48,80c-56.37,0-95.65,11.44-95.65,21.7c0,10.26,39.28,21.7,95.65,21.7
						s95.65-11.44,95.65-21.7C681.13,91.43,641.85,80,585.48,80z"/>
				</g>
			</g>
		</g>
	</g>
	<g>
		<g>
			<path d="M681.84,253.64l-21.01-50.61l-35.56,36.16v-145l99.42,99.27h-47.65l21.48,51.78L681.84,253.64z M661.86,197.7
				l21.51,51.81l11.3-5.7l-22.14-53.35h44.9l-89.17-89.04v130.44L661.86,197.7z"/>
		</g>
	</g>
</g>
<g>
	<g>
		<g>
			<g>
				<g>
					<rect x="993.12" y="17.03" width="2.51" height="96.64"/>
				</g>
			</g>
		</g>
		<g>
			<g>
				<g>
					<g>
						<polygon points="984.15,25.41 986,27.08 994.37,18.04 1002.83,27.08 1004.67,25.41 994.37,14.35 						"/>
					</g>
				</g>
			</g>
		</g>
		<g>
			<g>
				<g>
					<g>
						<polygon points="984.15,105.47 986,103.71 994.37,112.75 1002.83,103.71 1004.67,105.47 994.37,116.44 						"/>
					</g>
				</g>
			</g>
		</g>
	</g>
	<g id="XMLID_00000168839853779686086530000008808945926179799478_">
		<g>
			<g>
				<g>
					<path d="M993.28,187.12v0.25h-47.4v-14.49l0,0c0.5-25.79,21.52-46.48,47.32-46.65v20.35c-5.44,0-9.8,4.35-9.8,9.8
						s4.35,9.8,9.8,9.8v0.25L993.28,187.12L993.28,187.12z"/>
				</g>
			</g>
		</g>
		<g>
			<g>
				<path d="M1027.87,138.97c-9.21-9.04-21.35-13.99-34.25-13.99h-0.25c-12.9,0.08-24.96,5.02-34.08,14.07
					c-8.79,8.71-13.9,20.27-14.49,32.58h-0.08v48.82c0,26.97,21.86,48.91,48.82,48.91c26.88,0,48.82-21.94,48.91-48.91v-48.82
					C1041.94,159.23,1036.75,147.67,1027.87,138.97z M1039.76,220.53c0,25.63-20.77,46.39-46.31,46.39
					c-25.54,0-46.31-20.85-46.31-46.39v-47.57c0.49-24.48,20.46-44.66,44.89-45.37c0.39-0.01,0.78-0.02,1.17-0.02h0.25
					c0.36,0,0.73,0.01,1.09,0.02c24.55,0.58,44.73,20.69,45.22,45.37V220.53z"/>
			</g>
			<g class="st0">
				<g class="st1">
					<path class="st2" d="M1039.76,188.63v31.91c0,25.63-20.77,46.39-46.31,46.39c-25.54,0-46.31-20.85-46.31-46.39v-31.91H1039.76z
						"/>
				</g>
				<g>
					<path d="M993.45,268.43c-26.36,0-47.81-21.49-47.81-47.89v-33.41h95.62v33.41C1041.26,246.94,1019.82,268.43,993.45,268.43z
						 M948.64,190.13v30.41c0,24.75,20.1,44.89,44.81,44.89s44.81-20.14,44.81-44.89v-30.41H948.64z"/>
				</g>
			</g>
			<g class="st0">
				<g class="st1">
					<path class="st2" d="M1039.76,172.97v13.15h-45.22v-18.67c5.52-0.62,9.8-5.29,9.8-10.98c0-5.69-4.28-10.36-9.8-10.98v-17.9
						C1019.09,128.17,1039.27,148.29,1039.76,172.97z"/>
				</g>
				<g>
					<path d="M1041.26,187.61h-48.22v-21.51l1.33-0.15c4.83-0.54,8.46-4.62,8.46-9.49s-3.64-8.95-8.46-9.49l-1.33-0.15v-20.77
						l1.54,0.04c25.24,0.59,46.18,21.61,46.69,46.84V187.61z M996.04,184.61h42.22v-11.63c-0.47-23.13-19.26-42.47-42.22-43.82
						v15.06c5.67,1.26,9.8,6.31,9.8,12.25c0,5.94-4.13,10.99-9.8,12.25V184.61z"/>
				</g>
			</g>
			<g>
				<g>
					<rect x="945.89" y="186.11" width="95.22" height="2.51"/>
				</g>
			</g>
			<g>
				<g>
					<rect x="992.03" y="125.98" width="2.51" height="20.6"/>
				</g>
			</g>
			<g>
				<g>
					<rect x="992.03" y="166.52" width="2.51" height="20.6"/>
				</g>
			</g>
			<g>
				<path d="M994.54,145.49c-0.41-0.05-0.83-0.08-1.26-0.08h-0.08c-0.39,0-0.79,0.03-1.17,0.08c-5.52,0.62-9.8,5.29-9.8,10.98
					c0,5.69,4.28,10.36,9.8,10.98c0.39,0.05,0.78,0.08,1.18,0.08h0.08c0.43,0,0.85-0.03,1.26-0.08c5.52-0.62,9.8-5.29,9.8-10.98
					C1004.34,150.78,1000.06,146.11,994.54,145.49z M993.29,164.93c-4.69,0-8.54-3.85-8.54-8.54s3.85-8.54,8.54-8.54
					c4.69,0,8.54,3.85,8.54,8.54S997.98,164.93,993.29,164.93z"/>
			</g>
			<g class="st0">
				<g class="st1">
					<circle class="st2" cx="993.29" cy="156.38" r="8.54"/>
				</g>
				<g>
					<path d="M993.29,166.43c-5.54,0-10.04-4.5-10.04-10.04s4.5-10.04,10.04-10.04s10.04,4.5,10.04,10.04
						S998.82,166.43,993.29,166.43z M993.29,149.34c-3.88,0-7.04,3.16-7.04,7.04s3.16,7.04,7.04,7.04s7.04-3.16,7.04-7.04
						S997.17,149.34,993.29,149.34z"/>
				</g>
			</g>
		</g>
	</g>
	<g>
		<g>
			<g>
				<g>
					<path d="M884.92,187.29l-2.51-0.08c0.75-29.23,12.65-56.61,33.58-77.04c20.94-20.43,48.66-31.74,77.97-31.74
						c29.31,0,57.03,11.31,77.97,31.74c20.94,20.43,32.83,47.82,33.58,77.04l-2.51,0.08c-1.42-58.62-50.33-106.35-109.03-106.35
						S886.34,128.66,884.92,187.29z"/>
				</g>
			</g>
		</g>
		<g>
			<g>
				<g>
					<g>
						<polygon points="894.38,179.41 892.62,177.65 883.83,186.36 875.79,176.9 873.86,178.49 883.66,190.05 						"/>
					</g>
				</g>
			</g>
		</g>
		<g>
			<g>
				<g>
					<g>
						<polygon points="1093.52,179.41 1095.28,177.65 1104.08,186.36 1112.12,176.9 1114.04,178.49 1104.24,190.05 						"/>
					</g>
				</g>
			</g>
		</g>
	</g>
</g>
<g>
	<path d="M955.85,340.42h5.7l-12.7,42.26h-5.34l-12.76-42.26h5.7l9.69,32.94L955.85,340.42z"/>
	<path d="M966.78,343.49c0-2.02,1.72-3.56,3.74-3.56c2.09,0,3.8,1.53,3.8,3.56s-1.72,3.56-3.8,3.56
		C968.49,347.05,966.78,345.52,966.78,343.49z M967.88,382.69v-28.65h5.34v28.65H967.88z"/>
	<path d="M1009.41,370.67H986.1c0.8,5.09,4.48,7.73,9.39,7.73c3.5,0,6.69-1.59,8.34-4.48l4.6,1.84c-2.45,4.97-7.61,7.67-13.13,7.67
		c-8.16,0-14.72-6.07-14.72-15.15s6.56-14.97,14.72-14.97s14.23,5.89,14.23,14.97C1009.53,369.07,1009.47,369.87,1009.41,370.67z
		 M1004.19,366.06c-0.67-4.91-4.17-7.73-8.89-7.73c-4.85,0-8.28,2.58-9.14,7.73H1004.19z"/>
	<path d="M1052.04,354.04h5.77l-10.67,28.65h-4.48l-7.91-21.29l-7.61,21.29h-4.42l-10.92-28.65h5.77l7.3,20.36l7.3-20.36h5.21
		l7.36,20.36L1052.04,354.04z"/>
</g>
<g>
</g>
<g>
</g>
<g>
</g>
<g>
</g>
<g>
</g>
<g>
</g>
</svg>
