<?xml version="1.0" encoding="utf-8"?>
<!-- Generator: Adobe Illustrator 26.0.3, SVG Export Plug-In . SVG Version: 6.00 Build 0)  -->
<svg version="1.1" id="レイヤー_1" xmlns="http://www.w3.org/2000/svg" xmlns:xlink="http://www.w3.org/1999/xlink" x="0px"
	 y="0px" viewBox="0 0 210.22 210.22" style="enable-background:new 0 0 210.22 210.22;" xml:space="preserve">
<g>
	<path d="M105.11,14.7c-49.85,0-90.41,40.56-90.41,90.41s40.56,90.41,90.41,90.41s90.41-40.56,90.41-90.41S154.96,14.7,105.11,14.7z
		 M105.11,28.7c42.13,0,76.41,34.28,76.41,76.41s-34.28,76.41-76.41,76.41S28.7,147.24,28.7,105.11S62.98,28.7,105.11,28.7z"/>
	<g>
		<path d="M75.32,84.91c0-3.77,1.21-7.6,3.63-11.47s5.96-7.08,10.61-9.62c4.65-2.54,10.07-3.81,16.27-3.81
			c5.76,0,10.84,1.06,15.25,3.19c4.41,2.13,7.81,5.02,10.22,8.67c2.4,3.66,3.6,7.63,3.6,11.92c0,3.38-0.69,6.34-2.06,8.88
			c-1.37,2.54-3,4.74-4.89,6.58c-1.89,1.85-5.27,4.96-10.16,9.32c-1.35,1.23-2.43,2.31-3.25,3.25c-0.81,0.93-1.42,1.79-1.82,2.56
			s-0.71,1.55-0.92,2.32c-0.22,0.77-0.55,2.14-0.98,4.08c-0.75,4.13-3.12,6.2-7.09,6.2c-2.07,0-3.8-0.68-5.21-2.03
			c-1.41-1.35-2.11-3.36-2.11-6.02c0-3.34,0.52-6.23,1.55-8.67c1.03-2.44,2.4-4.59,4.11-6.43c1.71-1.85,4.01-4.04,6.91-6.58
			c2.54-2.22,4.38-3.9,5.51-5.03c1.13-1.13,2.09-2.39,2.86-3.78c0.77-1.39,1.16-2.9,1.16-4.53c0-3.18-1.18-5.86-3.55-8.04
			c-2.36-2.18-5.41-3.28-9.15-3.28c-4.37,0-7.59,1.1-9.65,3.31c-2.07,2.2-3.81,5.45-5.24,9.74c-1.35,4.49-3.91,6.73-7.69,6.73
			c-2.23,0-4.1-0.78-5.63-2.35C76.08,88.44,75.32,86.74,75.32,84.91z M104.4,150.21c-2.42,0-4.54-0.78-6.35-2.35
			s-2.71-3.76-2.71-6.58c0-2.5,0.87-4.61,2.62-6.32s3.89-2.56,6.43-2.56c2.5,0,4.61,0.85,6.32,2.56c1.71,1.71,2.56,3.81,2.56,6.32
			c0,2.78-0.89,4.97-2.68,6.55C108.8,149.42,106.74,150.21,104.4,150.21z"/>
	</g>
</g>
</svg>
