{
	"asset":{
		"version":"2.0",
		"generator":"Created using the official Cinema 4D glTF Exporter 1.000x284978"
	},
	"scenes":[{
		"nodes":[0,
		1,
		2,
		3,
		4,
		5]
	}],
	"nodes":[{
		"name":"Neon Outer",
		"translation":[-8.853036880493164,
		2.529608726501465,
		-14.45671558380127],
		"rotation":[0.0,
		0.0,
		0.0,
		-1.0],
		"scale":[1.0,
		1.0,
		1.0],
		"mesh":0
	},
	{
		"name":"filmcam",
		"translation":[-10.039963722229004,
		1.246996283531189,
		-9.598936080932618],
		"rotation":[0.0,
		0.0,
		0.0,
		-1.0],
		"scale":[1.0,
		1.0,
		1.0],
		"mesh":1
	},
	{
		"name":"RefrectedLight",
		"translation":[6.045965671539307,
		0.41003504395484927,
		5.713641166687012],
		"rotation":[0.0,
		0.0,
		0.0,
		-1.0],
		"scale":[1.0,
		1.0,
		1.0],
		"mesh":2
	},
	{
		"name":"Horizont+Button",
		"translation":[9.775233268737793,
		1.5130703449249268,
		13.577788352966309],
		"rotation":[0.0,
		0.0,
		1.2246468525851679e-16,
		1.0],
		"scale":[1.0,
		1.0,
		1.0],
		"mesh":3
	},
	{
		"name":"Sofa",
		"translation":[-11.314006805419922,
		0.0,
		-13.535032272338868],
		"rotation":[0.7071067690849304,
		0.0,
		0.0,
		-0.7071067690849304],
		"scale":[100.0,
		100.0,
		100.0],
		"mesh":4
	},
	{
		"name":"ARRI",
		"translation":[-8.232763290405274,
		0.4633692502975464,
		-7.160548210144043],
		"rotation":[0.0,
		0.0,
		0.0,
		-1.0],
		"scale":[1.0,
		1.0,
		1.0],
		"mesh":5
	}],
	"meshes":[{
		"name":"Neon Outer",
		"primitives":[{
			"attributes":{
				"POSITION":1,
				"NORMAL":2,
				"TEXCOORD_0":3
			},
			"indices":0,
			"material":0
		}]
	},
	{
		"name":"filmcam",
		"primitives":[{
			"attributes":{
				"POSITION":5,
				"NORMAL":6,
				"TEXCOORD_0":7
			},
			"indices":4,
			"material":1
		}]
	},
	{
		"name":"RefrectedLight",
		"primitives":[{
			"attributes":{
				"POSITION":9,
				"TEXCOORD_0":10
			},
			"indices":8,
			"material":2
		}]
	},
	{
		"name":"Horizont+Button",
		"primitives":[{
			"attributes":{
				"POSITION":12,
				"NORMAL":13,
				"TEXCOORD_0":14
			},
			"indices":11,
			"material":3
		}]
	},
	{
		"name":"Sofa",
		"primitives":[{
			"attributes":{
				"POSITION":16,
				"NORMAL":17,
				"TEXCOORD_0":18
			},
			"indices":15,
			"material":4
		}]
	},
	{
		"name":"ARRI",
		"primitives":[{
			"attributes":{
				"POSITION":20,
				"NORMAL":21,
				"TEXCOORD_0":22
			},
			"indices":19,
			"material":5
		}]
	}],
	"accessors":[{
		"bufferView":0,
		"type":"SCALAR",
		"componentType":5123,
		"count":7467,
		"byteOffset":0,
		"min":[0],
		"max":[2442]
	},
	{
		"bufferView":1,
		"type":"VEC3",
		"componentType":5126,
		"count":2443,
		"byteOffset":0,
		"min":[-3.6234896183013918,
		-1.0109246969223023,
		-0.055022116750478747],
		"max":[1.2967582941055298,
		0.6871221661567688,
		0.12030141055583954]
	},
	{
		"bufferView":1,
		"type":"VEC3",
		"componentType":5126,
		"count":2443,
		"byteOffset":12,
		"min":[-1.0,
		-0.9999998807907105,
		-0.9965967535972595],
		"max":[1.0,
		1.0,
		1.0]
	},
	{
		"bufferView":1,
		"type":"VEC2",
		"componentType":5126,
		"count":2443,
		"byteOffset":24,
		"min":[0.0016679312102496625,
		0.0016679312102496625],
		"max":[0.9950248599052429,
		0.8927370309829712]
	},
	{
		"bufferView":2,
		"type":"SCALAR",
		"componentType":5123,
		"count":10518,
		"byteOffset":0,
		"min":[0],
		"max":[3360]
	},
	{
		"bufferView":3,
		"type":"VEC3",
		"componentType":5126,
		"count":3361,
		"byteOffset":0,
		"min":[-0.22336140275001527,
		-1.2461293935775757,
		-0.28399616479873659],
		"max":[0.2423938661813736,
		0.5116095542907715,
		0.22468586266040803]
	},
	{
		"bufferView":3,
		"type":"VEC3",
		"componentType":5126,
		"count":3361,
		"byteOffset":12,
		"min":[-1.0,
		-1.0,
		-1.0],
		"max":[0.9999871850013733,
		1.0,
		0.9994542598724365]
	},
	{
		"bufferView":3,
		"type":"VEC2",
		"componentType":5126,
		"count":3361,
		"byteOffset":24,
		"min":[0.0016761311562731863,
		0.001682786038145423],
		"max":[0.9950248599052429,
		0.9950248003005981]
	},
	{
		"bufferView":4,
		"type":"SCALAR",
		"componentType":5123,
		"count":16209,
		"byteOffset":0,
		"min":[0],
		"max":[5883]
	},
	{
		"bufferView":5,
		"type":"VEC3",
		"componentType":5126,
		"count":5884,
		"byteOffset":0,
		"min":[0.44387733936309817,
		-0.4110367000102997,
		4.027442932128906],
		"max":[6.661163330078125,
		2.6709086894989015,
		6.153053283691406]
	},
	{
		"bufferView":5,
		"type":"VEC2",
		"componentType":5126,
		"count":5884,
		"byteOffset":12,
		"min":[0.0016693584620952607,
		0.0016723056323826314],
		"max":[0.9950248599052429,
		0.9950248003005981]
	},
	{
		"bufferView":6,
		"type":"SCALAR",
		"componentType":5123,
		"count":3012,
		"byteOffset":0,
		"min":[0],
		"max":[669]
	},
	{
		"bufferView":7,
		"type":"VEC3",
		"componentType":5126,
		"count":670,
		"byteOffset":0,
		"min":[-4.0,
		-1.5120704174041749,
		-2.311577558517456],
		"max":[4.0,
		2.7017664909362795,
		0.8315629363059998]
	},
	{
		"bufferView":7,
		"type":"VEC3",
		"componentType":5126,
		"count":670,
		"byteOffset":12,
		"min":[-1.0,
		-1.0,
		-1.0],
		"max":[1.0,
		1.0,
		1.0]
	},
	{
		"bufferView":7,
		"type":"VEC2",
		"componentType":5126,
		"count":670,
		"byteOffset":24,
		"min":[0.0016760455910116435,
		0.0016677738167345524],
		"max":[0.9950248599052429,
		0.9950248003005981]
	},
	{
		"bufferView":8,
		"type":"SCALAR",
		"componentType":5123,
		"count":13122,
		"byteOffset":0,
		"min":[0],
		"max":[2992]
	},
	{
		"bufferView":9,
		"type":"VEC3",
		"componentType":5126,
		"count":2993,
		"byteOffset":0,
		"min":[-0.0007545104599557817,
		-0.00997682474553585,
		-3.417539318206764e-8],
		"max":[0.027026385068893434,
		0.0013796768616884947,
		0.011841174215078354]
	},
	{
		"bufferView":9,
		"type":"VEC3",
		"componentType":5126,
		"count":2993,
		"byteOffset":12,
		"min":[-0.9999732375144959,
		-0.9999983310699463,
		-0.9999968409538269],
		"max":[0.9999940395355225,
		0.9999995231628418,
		0.9999839067459106]
	},
	{
		"bufferView":9,
		"type":"VEC2",
		"componentType":5126,
		"count":2993,
		"byteOffset":24,
		"min":[0.0017557010287418962,
		0.001742279389873147],
		"max":[0.9950248599052429,
		0.9950248003005981]
	},
	{
		"bufferView":10,
		"type":"SCALAR",
		"componentType":5123,
		"count":32958,
		"byteOffset":0,
		"min":[0],
		"max":[14735]
	},
	{
		"bufferView":11,
		"type":"VEC3",
		"componentType":5126,
		"count":14736,
		"byteOffset":0,
		"min":[-5.047158718109131,
		-0.4730971157550812,
		-3.1647961139678957],
		"max":[1.9370081424713135,
		2.1634793281555177,
		-1.7076916694641114]
	},
	{
		"bufferView":11,
		"type":"VEC3",
		"componentType":5126,
		"count":14736,
		"byteOffset":12,
		"min":[-0.9987542629241943,
		-1.0,
		-0.9999957084655762],
		"max":[0.9995949268341065,
		1.0,
		0.9995968341827393]
	},
	{
		"bufferView":11,
		"type":"VEC2",
		"componentType":5126,
		"count":14736,
		"byteOffset":24,
		"min":[0.0016942445654422045,
		0.001699049724265933],
		"max":[0.9950248599052429,
		0.9950248003005981]
	}],
	"bufferViews":[{
		"buffer":0,
		"byteOffset":0,
		"byteLength":14934,
		"target":34963
	},
	{
		"buffer":0,
		"byteOffset":14936,
		"byteLength":78176,
		"target":34962,
		"byteStride":32
	},
	{
		"buffer":1,
		"byteOffset":0,
		"byteLength":21036,
		"target":34963
	},
	{
		"buffer":1,
		"byteOffset":21036,
		"byteLength":107552,
		"target":34962,
		"byteStride":32
	},
	{
		"buffer":2,
		"byteOffset":0,
		"byteLength":32418,
		"target":34963
	},
	{
		"buffer":2,
		"byteOffset":32420,
		"byteLength":117680,
		"target":34962,
		"byteStride":20
	},
	{
		"buffer":3,
		"byteOffset":0,
		"byteLength":6024,
		"target":34963
	},
	{
		"buffer":3,
		"byteOffset":6024,
		"byteLength":21440,
		"target":34962,
		"byteStride":32
	},
	{
		"buffer":4,
		"byteOffset":0,
		"byteLength":26244,
		"target":34963
	},
	{
		"buffer":4,
		"byteOffset":26244,
		"byteLength":95776,
		"target":34962,
		"byteStride":32
	},
	{
		"buffer":5,
		"byteOffset":0,
		"byteLength":65916,
		"target":34963
	},
	{
		"buffer":5,
		"byteOffset":65916,
		"byteLength":471552,
		"target":34962,
		"byteStride":32
	}],
	"buffers":[{
		"uri":"data:application/octet-stream;base64,",
		"byteLength":93112
	},
	{
		"uri":"data:application/octet-stream;base64,",
		"byteLength":128588
	},
	{
		"uri":"data:application/octet-stream;base64,",
		"byteLength":150100
	},
	{
		"uri":"data:application/octet-stream;base64,",
		"byteLength":27464
	},
	{
		"uri":"data:application/octet-stream;base64,",
		"byteLength":122020
	},
	{
		"uri":"data:application/octet-stream;base64,",
		"byteLength":537468
	}],
	"images":[{
		"uri":"data:image/jpeg;base64,"
	},
	{
		"uri":"data:image/jpeg;base64,"
	},
	{
		"uri":"data:image/jpeg;base64,"
	},
	{
		"uri":"data:image/jpeg;base64,"
	},
	{
		"uri":"data:image/jpeg;base64,"
	},
	{
		"uri":"data:image/jpeg;base64,"
	}],
	"samplers":[{
		"magFilter":9729,
		"minFilter":9729,
		"wrapS":10497,
		"wrapT":10497
	},
	{
		"magFilter":9729,
		"minFilter":9729,
		"wrapS":10497,
		"wrapT":10497
	},
	{
		"magFilter":9729,
		"minFilter":9729,
		"wrapS":10497,
		"wrapT":10497
	},
	{
		"magFilter":9729,
		"minFilter":9729,
		"wrapS":10497,
		"wrapT":10497
	},
	{
		"magFilter":9729,
		"minFilter":9729,
		"wrapS":10497,
		"wrapT":10497
	},
	{
		"magFilter":9729,
		"minFilter":9729,
		"wrapS":10497,
		"wrapT":10497
	}],
	"textures":[{
		"source":0,
		"sampler":0
	},
	{
		"source":1,
		"sampler":1
	},
	{
		"source":2,
		"sampler":2
	},
	{
		"source":3,
		"sampler":3
	},
	{
		"source":4,
		"sampler":4
	},
	{
		"source":5,
		"sampler":5
	}],
	"materials":[{
		"pbrMetallicRoughness":{
			"baseColorTexture":{
				"index":0
			},
			"baseColorFactor":[0.8,
			0.8,
			0.8,
			1.0],
			"metallicFactor":1.0,
			"roughnessFactor":1.0
		},
		"emissiveFactor":[0.0,
		0.0,
		0.0],
		"alphaMode":"OPAQUE",
		"doubleSided":true,
		"name":"NeonOuter"
	},
	{
		"pbrMetallicRoughness":{
			"baseColorTexture":{
				"index":1
			},
			"baseColorFactor":[0.8,
			0.8,
			0.8,
			1.0],
			"metallicFactor":1.0,
			"roughnessFactor":1.0
		},
		"emissiveFactor":[0.0,
		0.0,
		0.0],
		"alphaMode":"OPAQUE",
		"doubleSided":true,
		"name":"filmCamera"
	},
	{
		"pbrMetallicRoughness":{
			"baseColorTexture":{
				"index":2
			},
			"baseColorFactor":[0.8,
			0.8,
			0.8,
			1.0],
			"metallicFactor":1.0,
			"roughnessFactor":1.0
		},
		"emissiveFactor":[0.0,
		0.0,
		0.0],
		"alphaMode":"OPAQUE",
		"doubleSided":true,
		"name":"RefLight"
	},
	{
		"pbrMetallicRoughness":{
			"baseColorTexture":{
				"index":3
			},
			"baseColorFactor":[0.8,
			0.8,
			0.8,
			1.0],
			"metallicFactor":1.0,
			"roughnessFactor":1.0
		},
		"emissiveFactor":[0.0,
		0.0,
		0.0],
		"alphaMode":"OPAQUE",
		"doubleSided":true,
		"name":"Horizont+button"
	},
	{
		"pbrMetallicRoughness":{
			"baseColorTexture":{
				"index":4
			},
			"baseColorFactor":[0.8,
			0.8,
			0.8,
			1.0],
			"metallicFactor":1.0,
			"roughnessFactor":1.0
		},
		"emissiveFactor":[0.0,
		0.0,
		0.0],
		"alphaMode":"OPAQUE",
		"doubleSided":true,
		"name":"Sofa"
	},
	{
		"pbrMetallicRoughness":{
			"baseColorTexture":{
				"index":5
			},
			"baseColorFactor":[0.8,
			0.8,
			0.8,
			1.0],
			"metallicFactor":1.0,
			"roughnessFactor":1.0
		},
		"emissiveFactor":[0.0,
		0.0,
		0.0],
		"alphaMode":"OPAQUE",
		"doubleSided":true,
		"name":"ARRI"
	}]
}