{
	"asset":{
		"version":"2.0",
		"generator":"Created using the official Cinema 4D glTF Exporter 1.000x284978"
	},
	"scenes":[{
		"nodes":[0,
		1,
		2]
	}],
	"nodes":[{
		"name":"Collabo Stairs",
		"translation":[0.0,
		-0.6499999761581421,
		0.0],
		"rotation":[0.0,
		0.0,
		0.0,
		-1.0],
		"scale":[1.0,
		1.0,
		1.0],
		"mesh":0
	},
	{
		"name":"Collabo Floor",
		"translation":[0.0,
		-0.4975000023841858,
		0.0],
		"rotation":[0.0,
		0.0,
		0.0,
		-1.0],
		"scale":[1.0,
		1.0,
		1.0],
		"mesh":1
	},
	{
		"name":"Floor",
		"translation":[0.0,
		-0.05000000074505806,
		0.0],
		"rotation":[0.0,
		0.0,
		0.0,
		-1.0],
		"scale":[1.0,
		1.0,
		1.0],
		"mesh":2
	}],
	"meshes":[{
		"name":"Collabo Stairs",
		"primitives":[{
			"attributes":{
				"POSITION":1,
				"NORMAL":2,
				"TEXCOORD_0":3
			},
			"indices":0,
			"material":0
		}]
	},
	{
		"name":"Collabo Floor",
		"primitives":[{
			"attributes":{
				"POSITION":5,
				"NORMAL":6,
				"TEXCOORD_0":7
			},
			"indices":4,
			"material":1
		}]
	},
	{
		"name":"Floor",
		"primitives":[{
			"attributes":{
				"POSITION":9,
				"NORMAL":10,
				"TEXCOORD_0":11
			},
			"indices":8,
			"material":2
		}]
	}],
	"accessors":[{
		"bufferView":0,
		"type":"SCALAR",
		"componentType":5123,
		"count":1920,
		"byteOffset":0,
		"min":[0],
		"max":[655]
	},
	{
		"bufferView":1,
		"type":"VEC3",
		"componentType":5126,
		"count":656,
		"byteOffset":0,
		"min":[-5.0,
		-0.3499999940395355,
		-5.0],
		"max":[5.0,
		0.3499999940395355,
		5.0]
	},
	{
		"bufferView":1,
		"type":"VEC3",
		"componentType":5126,
		"count":656,
		"byteOffset":12,
		"min":[-0.999656081199646,
		-1.0,
		-0.999656081199646],
		"max":[0.999656081199646,
		1.0,
		0.999656081199646]
	},
	{
		"bufferView":1,
		"type":"VEC2",
		"componentType":5126,
		"count":656,
		"byteOffset":24,
		"min":[0.002406227169558406,
		0.0016680718399584294],
		"max":[0.6633499264717102,
		0.9950248003005981]
	},
	{
		"bufferView":2,
		"type":"SCALAR",
		"componentType":5123,
		"count":960,
		"byteOffset":0,
		"min":[0],
		"max":[331]
	},
	{
		"bufferView":3,
		"type":"VEC3",
		"componentType":5126,
		"count":332,
		"byteOffset":0,
		"min":[-5.0,
		-0.5024999976158142,
		-5.0],
		"max":[5.0,
		0.4975000023841858,
		5.0]
	},
	{
		"bufferView":3,
		"type":"VEC3",
		"componentType":5126,
		"count":332,
		"byteOffset":12,
		"min":[-0.999656081199646,
		-1.0,
		-0.999656081199646],
		"max":[0.999656081199646,
		1.0,
		0.999656081199646]
	},
	{
		"bufferView":3,
		"type":"VEC2",
		"componentType":5126,
		"count":332,
		"byteOffset":24,
		"min":[0.0011312025599181653,
		0.0011312025599181653],
		"max":[0.9975029230117798,
		0.9988688230514526]
	},
	{
		"bufferView":4,
		"type":"SCALAR",
		"componentType":5123,
		"count":288,
		"byteOffset":0,
		"min":[0],
		"max":[103]
	},
	{
		"bufferView":5,
		"type":"VEC3",
		"componentType":5126,
		"count":104,
		"byteOffset":0,
		"min":[-15.0,
		-0.05000000074505806,
		-15.0],
		"max":[15.0,
		0.05000000074505806,
		15.0]
	},
	{
		"bufferView":5,
		"type":"VEC3",
		"componentType":5126,
		"count":104,
		"byteOffset":12,
		"min":[-1.0,
		-1.0,
		-1.0],
		"max":[1.0,
		1.0,
		1.0]
	},
	{
		"bufferView":5,
		"type":"VEC2",
		"componentType":5126,
		"count":104,
		"byteOffset":24,
		"min":[0.0016682917485013605,
		0.0016682916320860386],
		"max":[0.9950248599052429,
		0.9950248003005981]
	}],
	"bufferViews":[{
		"buffer":0,
		"byteOffset":0,
		"byteLength":3840,
		"target":34963
	},
	{
		"buffer":0,
		"byteOffset":3840,
		"byteLength":20992,
		"target":34962,
		"byteStride":32
	},
	{
		"buffer":1,
		"byteOffset":0,
		"byteLength":1920,
		"target":34963
	},
	{
		"buffer":1,
		"byteOffset":1920,
		"byteLength":10624,
		"target":34962,
		"byteStride":32
	},
	{
		"buffer":2,
		"byteOffset":0,
		"byteLength":576,
		"target":34963
	},
	{
		"buffer":2,
		"byteOffset":576,
		"byteLength":3328,
		"target":34962,
		"byteStride":32
	}],
	"buffers":[{
		"uri":"data:application/octet-stream;base64,",
		"byteLength":24832
	},
	{
		"uri":"data:application/octet-stream;base64,",
		"byteLength":12544
	},
	{
		"uri":"data:application/octet-stream;base64,",
		"byteLength":3904
	}],
	"images":[{
		"uri":"data:image/jpeg;base64,"
	},
	{
		"uri":"data:image/jpeg;base64,"
	},
	{
		"uri":"data:image/jpeg;base64,"
	}],
	"samplers":[{
		"magFilter":9729,
		"minFilter":9729,
		"wrapS":10497,
		"wrapT":10497
	},
	{
		"magFilter":9729,
		"minFilter":9729,
		"wrapS":10497,
		"wrapT":10497
	},
	{
		"magFilter":9729,
		"minFilter":9729,
		"wrapS":10497,
		"wrapT":10497
	}],
	"textures":[{
		"source":0,
		"sampler":0
	},
	{
		"source":1,
		"sampler":1
	},
	{
		"source":2,
		"sampler":2
	}],
	"materials":[{
		"pbrMetallicRoughness":{
			"baseColorTexture":{
				"index":0
			},
			"baseColorFactor":[0.8,
			0.8,
			0.8,
			1.0],
			"metallicFactor":1.0,
			"roughnessFactor":1.0
		},
		"emissiveFactor":[0.0,
		0.0,
		0.0],
		"alphaMode":"OPAQUE",
		"doubleSided":true,
		"name":"Collabo Stairs"
	},
	{
		"pbrMetallicRoughness":{
			"baseColorTexture":{
				"index":1
			},
			"baseColorFactor":[0.8,
			0.8,
			0.8,
			1.0],
			"metallicFactor":1.0,
			"roughnessFactor":1.0
		},
		"emissiveFactor":[0.0,
		0.0,
		0.0],
		"alphaMode":"OPAQUE",
		"doubleSided":true,
		"name":"Collabo Floor"
	},
	{
		"pbrMetallicRoughness":{
			"baseColorTexture":{
				"index":2
			},
			"baseColorFactor":[0.8,
			0.8,
			0.8,
			1.0],
			"metallicFactor":1.0,
			"roughnessFactor":1.0
		},
		"emissiveFactor":[0.0,
		0.0,
		0.0],
		"alphaMode":"OPAQUE",
		"doubleSided":true,
		"name":"Floor"
	}]
}