{
	"textures":[{
		"sampler":0,
		"source":0
	},
	{
		"sampler":1,
		"source":1
	},
	{
		"sampler":2,
		"source":2
	},
	{
		"sampler":3,
		"source":3
	},
	{
		"sampler":4,
		"source":4
	},
	{
		"sampler":5,
		"source":5
	},
	{
		"sampler":6,
		"source":6
	}],
	"asset":{
		"version":"2.0",
		"generator":"Created using the official Cinema 4D glTF Exporter 1.000x284978"
	},
	"scenes":[{
		"nodes":[0,
		1,
		2,
		3,
		4,
		5,
		6]
	}],
	"nodes":[{
		"name":"MovingLight",
		"translation":[2.848679304122925,
		2.177500009536743,
		-1.227797031402588],
		"rotation":[0.0,
		0.0,
		0.0,
		-1.0],
		"scale":[1.0,
		1.0,
		1.0],
		"mesh":0
	},
	{
		"name":"CollaboCeilingRF",
		"translation":[0.0,
		2.9140965938568117,
		0.0],
		"rotation":[0.0,
		-5.665538686387998e-16,
		0.0,
		-1.0],
		"scale":[1.0,
		1.0,
		1.0],
		"mesh":1
	},
	{
		"name":"CollaboCeilingTimber",
		"translation":[0.0,
		3.265000104904175,
		0.0],
		"rotation":[0.0,
		-5.665538686387998e-16,
		0.0,
		-1.0],
		"scale":[1.0,
		1.0,
		1.0],
		"mesh":2
	},
	{
		"name":"LitBarRF",
		"translation":[-4.75,
		4.425000190734863,
		-4.75],
		"rotation":[0.0,
		0.0,
		0.0,
		-1.0],
		"scale":[1.0,
		1.0,
		1.0],
		"mesh":3
	},
	{
		"name":"LitBarBase",
		"translation":[-6.275000095367432,
		2.03125,
		0.0],
		"rotation":[0.0,
		0.0,
		0.0,
		-1.0],
		"scale":[1.0,
		1.0,
		1.0],
		"mesh":4
	},
	{
		"name":"CeilingPillar",
		"translation":[0.0,
		4.5,
		0.0],
		"rotation":[0.0,
		0.0,
		0.0,
		-1.0],
		"scale":[1.0,
		1.0,
		1.0],
		"mesh":5
	},
	{
		"name":"Ceiling",
		"translation":[0.0,
		5.449999809265137,
		0.0],
		"rotation":[0.0,
		0.0,
		0.0,
		-1.0],
		"scale":[1.0,
		1.0,
		1.0],
		"mesh":6
	}],
	"meshes":[{
		"name":"MovingLight",
		"primitives":[{
			"attributes":{
				"POSITION":1,
				"NORMAL":2,
				"TEXCOORD_0":3
			},
			"indices":0,
			"material":0
		}]
	},
	{
		"name":"CollaboCeilingRF",
		"primitives":[{
			"attributes":{
				"POSITION":5,
				"NORMAL":6,
				"TEXCOORD_0":7
			},
			"indices":4,
			"material":1
		}]
	},
	{
		"name":"CollaboCeilingTimber",
		"primitives":[{
			"attributes":{
				"POSITION":9,
				"NORMAL":10,
				"TEXCOORD_0":11
			},
			"indices":8,
			"material":2
		}]
	},
	{
		"name":"LitBarRF",
		"primitives":[{
			"attributes":{
				"POSITION":13,
				"NORMAL":14,
				"TEXCOORD_0":15
			},
			"indices":12,
			"material":3
		}]
	},
	{
		"name":"LitBarBase",
		"primitives":[{
			"attributes":{
				"POSITION":17,
				"NORMAL":18,
				"TEXCOORD_0":19
			},
			"indices":16,
			"material":4
		}]
	},
	{
		"name":"CeilingPillar",
		"primitives":[{
			"attributes":{
				"POSITION":21,
				"NORMAL":22,
				"TEXCOORD_0":23
			},
			"indices":20,
			"material":5
		}]
	},
	{
		"name":"Ceiling",
		"primitives":[{
			"attributes":{
				"POSITION":25,
				"NORMAL":26,
				"TEXCOORD_0":27
			},
			"indices":24,
			"material":6
		}]
	}],
	"accessors":[{
		"bufferView":0,
		"type":"SCALAR",
		"componentType":5123,
		"count":2976,
		"byteOffset":0,
		"min":[0],
		"max":[1855]
	},
	{
		"bufferView":1,
		"type":"VEC3",
		"componentType":5126,
		"count":1856,
		"byteOffset":0,
		"min":[-8.654012680053711,
		0.8963398337364197,
		-4.577536106109619],
		"max":[2.9566538333892824,
		2.927500009536743,
		7.033130168914795]
	},
	{
		"bufferView":1,
		"type":"VEC3",
		"componentType":5126,
		"count":1856,
		"byteOffset":12,
		"min":[-0.9755159020423889,
		-1.0,
		-0.9755148887634277],
		"max":[0.9755149483680725,
		1.0,
		0.9755147695541382]
	},
	{
		"bufferView":1,
		"type":"VEC2",
		"componentType":5126,
		"count":1856,
		"byteOffset":24,
		"min":[0.0016930005513131619,
		0.0016687221359461547],
		"max":[0.9950248599052429,
		0.9950248003005981]
	},
	{
		"bufferView":2,
		"type":"SCALAR",
		"componentType":5123,
		"count":2484,
		"byteOffset":0,
		"min":[0],
		"max":[1655]
	},
	{
		"bufferView":3,
		"type":"VEC3",
		"componentType":5126,
		"count":1656,
		"byteOffset":0,
		"min":[-5.283926486968994,
		-0.5721274614334106,
		-5.277604103088379],
		"max":[5.283926486968994,
		2.1013028621673586,
		5.2859392166137699]
	},
	{
		"bufferView":3,
		"type":"VEC3",
		"componentType":5126,
		"count":1656,
		"byteOffset":12,
		"min":[-1.0,
		-1.0,
		-1.0],
		"max":[1.0,
		1.0,
		1.0]
	},
	{
		"bufferView":3,
		"type":"VEC2",
		"componentType":5126,
		"count":1656,
		"byteOffset":24,
		"min":[0.0017050585011020303,
		0.001669540535658598],
		"max":[0.9950248599052429,
		0.9950248003005981]
	},
	{
		"bufferView":4,
		"type":"SCALAR",
		"componentType":5123,
		"count":1980,
		"byteOffset":0,
		"min":[0],
		"max":[1319]
	},
	{
		"bufferView":5,
		"type":"VEC3",
		"componentType":5126,
		"count":1320,
		"byteOffset":0,
		"min":[-5.649256229400635,
		-0.9745332598686218,
		-5.643772125244141],
		"max":[5.649256229400635,
		0.22111113369464875,
		5.650132656097412]
	},
	{
		"bufferView":5,
		"type":"VEC3",
		"componentType":5126,
		"count":1320,
		"byteOffset":12,
		"min":[-1.0,
		-0.965925931930542,
		-0.9995921850204468],
		"max":[1.0,
		0.9659259915351868,
		0.9995921850204468]
	},
	{
		"bufferView":5,
		"type":"VEC2",
		"componentType":5126,
		"count":1320,
		"byteOffset":24,
		"min":[0.002581649459898472,
		0.0025221421383321287],
		"max":[0.9950248599052429,
		0.9950248003005981]
	},
	{
		"bufferView":6,
		"type":"SCALAR",
		"componentType":5123,
		"count":7128,
		"byteOffset":0,
		"min":[0],
		"max":[4751]
	},
	{
		"bufferView":7,
		"type":"VEC3",
		"componentType":5126,
		"count":4752,
		"byteOffset":0,
		"min":[-7.755000114440918,
		-0.6499999761581421,
		-6.755000114440918],
		"max":[17.2549991607666,
		0.6499999761581421,
		16.2549991607666]
	},
	{
		"bufferView":7,
		"type":"VEC3",
		"componentType":5126,
		"count":4752,
		"byteOffset":12,
		"min":[-1.0,
		-1.0,
		-1.0],
		"max":[1.0,
		1.0,
		1.0]
	},
	{
		"bufferView":7,
		"type":"VEC2",
		"componentType":5126,
		"count":4752,
		"byteOffset":24,
		"min":[0.0016782148741185666,
		0.0016788500361144543],
		"max":[0.9950248599052429,
		0.9950248003005981]
	},
	{
		"bufferView":8,
		"type":"SCALAR",
		"componentType":5123,
		"count":2376,
		"byteOffset":0,
		"min":[0],
		"max":[1583]
	},
	{
		"bufferView":9,
		"type":"VEC3",
		"componentType":5126,
		"count":1584,
		"byteOffset":0,
		"min":[-6.275000095367432,
		1.71875,
		-12.5],
		"max":[18.825000762939454,
		1.7687499523162842,
		12.5]
	},
	{
		"bufferView":9,
		"type":"VEC3",
		"componentType":5126,
		"count":1584,
		"byteOffset":12,
		"min":[-1.0,
		-1.0,
		-1.0],
		"max":[1.0,
		1.0,
		1.0]
	},
	{
		"bufferView":9,
		"type":"VEC2",
		"componentType":5126,
		"count":1584,
		"byteOffset":24,
		"min":[0.001668161479756236,
		0.0016826631035655738],
		"max":[0.9950248599052429,
		0.9950248003005981]
	},
	{
		"bufferView":10,
		"type":"SCALAR",
		"componentType":5123,
		"count":2160,
		"byteOffset":0,
		"min":[0],
		"max":[615]
	},
	{
		"bufferView":11,
		"type":"VEC3",
		"componentType":5126,
		"count":616,
		"byteOffset":0,
		"min":[-15.0,
		-0.5,
		-15.0],
		"max":[15.0,
		0.5,
		15.0]
	},
	{
		"bufferView":11,
		"type":"VEC3",
		"componentType":5126,
		"count":616,
		"byteOffset":12,
		"min":[-1.0,
		-1.0,
		-1.0],
		"max":[1.0,
		1.0,
		1.0]
	},
	{
		"bufferView":11,
		"type":"VEC2",
		"componentType":5126,
		"count":616,
		"byteOffset":24,
		"min":[0.0016680379630997778,
		0.0018056761473417283],
		"max":[0.9950248599052429,
		0.9950248003005981]
	},
	{
		"bufferView":12,
		"type":"SCALAR",
		"componentType":5123,
		"count":36,
		"byteOffset":0,
		"min":[0],
		"max":[23]
	},
	{
		"bufferView":13,
		"type":"VEC3",
		"componentType":5126,
		"count":24,
		"byteOffset":0,
		"min":[-15.0,
		-0.5,
		-15.0],
		"max":[15.0,
		0.5,
		15.0]
	},
	{
		"bufferView":13,
		"type":"VEC3",
		"componentType":5126,
		"count":24,
		"byteOffset":12,
		"min":[-1.0,
		-1.0,
		-1.0],
		"max":[1.0,
		1.0,
		1.0]
	},
	{
		"bufferView":13,
		"type":"VEC2",
		"componentType":5126,
		"count":24,
		"byteOffset":24,
		"min":[0.012099416926503182,
		0.01563923805952072],
		"max":[0.9938053488731384,
		0.9938052892684937]
	}],
	"bufferViews":[{
		"buffer":0,
		"byteOffset":0,
		"byteLength":5952,
		"target":34963
	},
	{
		"buffer":0,
		"byteOffset":5952,
		"byteLength":59392,
		"target":34962,
		"byteStride":32
	},
	{
		"buffer":1,
		"byteOffset":0,
		"byteLength":4968,
		"target":34963
	},
	{
		"buffer":1,
		"byteOffset":4968,
		"byteLength":52992,
		"target":34962,
		"byteStride":32
	},
	{
		"buffer":2,
		"byteOffset":0,
		"byteLength":3960,
		"target":34963
	},
	{
		"buffer":2,
		"byteOffset":3960,
		"byteLength":42240,
		"target":34962,
		"byteStride":32
	},
	{
		"buffer":3,
		"byteOffset":0,
		"byteLength":14256,
		"target":34963
	},
	{
		"buffer":3,
		"byteOffset":14256,
		"byteLength":152064,
		"target":34962,
		"byteStride":32
	},
	{
		"buffer":4,
		"byteOffset":0,
		"byteLength":4752,
		"target":34963
	},
	{
		"buffer":4,
		"byteOffset":4752,
		"byteLength":50688,
		"target":34962,
		"byteStride":32
	},
	{
		"buffer":5,
		"byteOffset":0,
		"byteLength":4320,
		"target":34963
	},
	{
		"buffer":5,
		"byteOffset":4320,
		"byteLength":19712,
		"target":34962,
		"byteStride":32
	},
	{
		"buffer":6,
		"byteOffset":0,
		"byteLength":72,
		"target":34963
	},
	{
		"buffer":6,
		"byteOffset":72,
		"byteLength":768,
		"target":34962,
		"byteStride":32
	}],
	"buffers":[{
		"uri":"data:application/octet-stream;base64,",
		"byteLength":65344
	},
	{
		"uri":"data:application/octet-stream;base64,",
		"byteLength":57960
	},
	{
		"uri":"data:application/octet-stream;base64,",
		"byteLength":46200
	},
	{
		"uri":"data:application/octet-stream;base64,",
		"byteLength":166320
	},
	{
		"uri":"data:application/octet-stream;base64,",
		"byteLength":55440
	},
	{
		"uri":"data:application/octet-stream;base64,",
		"byteLength":24032
	},
	{
		"uri":"data:application/octet-stream;base64,",
		"byteLength":840
	}],
	"images":[{
		"uri":"data:image/jpeg;base64,"
	},
	{
		"uri":"data:image/jpeg;base64,"
	},
	{
		"uri":"data:image/jpeg;base64,"
	},
	{
		"uri":"data:image/jpeg;base64,"
	},
	{
		"uri":"data:image/jpeg;base64,"
	},
	{
		"uri":"data:image/jpeg;base64,"
	},
	{
		"uri":"data:image/jpeg;base64,"
	}],
	"samplers":[{
		"magFilter":9729,
		"minFilter":9729,
		"wrapS":10497,
		"wrapT":10497
	},
	{
		"magFilter":9729,
		"minFilter":9729,
		"wrapS":10497,
		"wrapT":10497
	},
	{
		"magFilter":9729,
		"minFilter":9729,
		"wrapS":10497,
		"wrapT":10497
	},
	{
		"magFilter":9729,
		"minFilter":9729,
		"wrapS":10497,
		"wrapT":10497
	},
	{
		"magFilter":9729,
		"minFilter":9729,
		"wrapS":10497,
		"wrapT":10497
	},
	{
		"magFilter":9729,
		"minFilter":9729,
		"wrapS":10497,
		"wrapT":10497
	},
	{
		"magFilter":9729,
		"minFilter":9729,
		"wrapS":10497,
		"wrapT":10497
	}],
	"materials":[{
		"pbrMetallicRoughness":{
			"baseColorTexture":{
				"index":0
			},
			"baseColorFactor":[0.8,
			0.8,
			0.8,
			1.0],
			"metallicFactor":1.0,
			"roughnessFactor":1.0
		},
		"emissiveFactor":[0.0,
		0.0,
		0.0],
		"alphaMode":"OPAQUE",
		"name":"MovingLight",
		"doubleSided":true
	},
	{
		"pbrMetallicRoughness":{
			"baseColorTexture":{
				"index":1
			},
			"baseColorFactor":[0.8,
			0.8,
			0.8,
			1.0],
			"metallicFactor":1.0,
			"roughnessFactor":1.0
		},
		"emissiveFactor":[0.0,
		0.0,
		0.0],
		"alphaMode":"OPAQUE",
		"name":"CollaboCeilingRF",
		"doubleSided":true
	},
	{
		"pbrMetallicRoughness":{
			"baseColorTexture":{
				"index":2
			},
			"baseColorFactor":[0.8,
			0.8,
			0.8,
			1.0],
			"metallicFactor":1.0,
			"roughnessFactor":1.0
		},
		"emissiveFactor":[0.0,
		0.0,
		0.0],
		"alphaMode":"OPAQUE",
		"name":"CollaboCeilingTimber",
		"doubleSided":true
	},
	{
		"pbrMetallicRoughness":{
			"baseColorTexture":{
				"index":3
			},
			"baseColorFactor":[0.8,
			0.8,
			0.8,
			1.0],
			"metallicFactor":1.0,
			"roughnessFactor":1.0
		},
		"emissiveFactor":[0.0,
		0.0,
		0.0],
		"alphaMode":"OPAQUE",
		"name":"LitBarRF",
		"doubleSided":true
	},
	{
		"pbrMetallicRoughness":{
			"baseColorTexture":{
				"index":4
			},
			"baseColorFactor":[0.8,
			0.8,
			0.8,
			1.0],
			"metallicFactor":1.0,
			"roughnessFactor":1.0
		},
		"emissiveFactor":[0.0,
		0.0,
		0.0],
		"alphaMode":"OPAQUE",
		"name":"LitBarBase",
		"doubleSided":true
	},
	{
		"pbrMetallicRoughness":{
			"baseColorTexture":{
				"index":5
			},
			"baseColorFactor":[0.8,
			0.8,
			0.8,
			1.0],
			"metallicFactor":1.0,
			"roughnessFactor":1.0
		},
		"emissiveFactor":[0.0,
		0.0,
		0.0],
		"alphaMode":"OPAQUE",
		"name":"CLPillar",
		"doubleSided":true
	},
	{
		"pbrMetallicRoughness":{
			"baseColorTexture":{
				"index":6
			},
			"baseColorFactor":[0.8,
			0.8,
			0.8,
			1.0],
			"metallicFactor":1.0,
			"roughnessFactor":1.0
		},
		"emissiveFactor":[0.0,
		0.0,
		0.0],
		"alphaMode":"OPAQUE",
		"name":"Ceiling",
		"doubleSided":true
	}]
}