{
	"asset":{
		"version":"2.0",
		"generator":"Created using the official Cinema 4D glTF Exporter 1.000x284978"
	},
	"scenes":[{
		"nodes":[0]
	}],
	"nodes":[{
		"name":"Pyramid",
		"translation":[0.0,
		0.0,
		0.0],
		"rotation":[1.0,
		-6.123234262925839e-17,
		6.123234262925839e-17,
		6.123234262925839e-17],
		"scale":[1.0,
		1.0,
		1.0],
		"mesh":0
	}],
	"meshes":[{
		"name":"Pyramid",
		"primitives":[{
			"attributes":{
				"POSITION":1,
				"NORMAL":2,
				"TEXCOORD_0":3
			},
			"indices":0,
			"material":0
		}]
	}],
	"accessors":[{
		"type":"SCALAR",
		"bufferView":0,
		"componentType":5123,
		"count":18,
		"byteOffset":0,
		"min":[0],
		"max":[15]
	},
	{
		"type":"VEC3",
		"bufferView":1,
		"componentType":5126,
		"count":16,
		"byteOffset":0,
		"min":[-0.23600000143051148,
		-0.23600000143051148,
		-0.23600000143051148],
		"max":[0.23600000143051148,
		0.23600000143051148,
		0.23600000143051148]
	},
	{
		"type":"VEC3",
		"bufferView":1,
		"componentType":5126,
		"count":16,
		"byteOffset":12,
		"min":[-0.8944271802902222,
		-1.0,
		-0.8944271802902222],
		"max":[0.8944271802902222,
		0.4472135901451111,
		0.8944271802902222]
	},
	{
		"type":"VEC2",
		"bufferView":1,
		"componentType":5126,
		"count":16,
		"byteOffset":24,
		"min":[0.0,
		0.0],
		"max":[1.0,
		1.0]
	}],
	"bufferViews":[{
		"buffer":0,
		"byteOffset":0,
		"byteLength":36,
		"target":34963
	},
	{
		"buffer":0,
		"byteOffset":36,
		"byteLength":512,
		"target":34962,
		"byteStride":32
	}],
	"buffers":[{
		"uri":"data:application/octet-stream;base64,",
		"byteLength":548
	}],
	"materials":[{
		"pbrMetallicRoughness":{
			"baseColorFactor":[0.0,
			0.6833333333333331,
			1.0,
			1.0],
			"metallicFactor":0.0,
			"roughnessFactor":0.5
		},
		"emissiveFactor":[0.0,
		0.0,
		0.0],
		"alphaMode":"OPAQUE",
		"doubleSided":true,
		"name":"blue"
	}]
}